<svg width="27" height="29" viewBox="0 0 27 29" fill="none" xmlns="http://www.w3.org/2000/svg">
  <g id="Group 1">
    <path id="Rectangle 1"
      d="M0 5.38672C0 2.6253 2.23858 0.386719 5 0.386719H22C24.7614 0.386719 27 2.62529 27 5.38672V23.4056C27 26.167 24.7614 28.4056 22 28.4056H5C2.23858 28.4056 0 26.167 0 23.4056V5.38672Z"
      fill="#451A03" />
    <path id="Rectangle 7"
      d="M0 16.3867L6.75078 18.8068C11.1143 20.3711 15.8857 20.3711 20.2492 18.8068L27 16.3867V23.6131C27 26.3746 24.7614 28.6131 22 28.6131H5C2.23858 28.6131 0 26.3746 0 23.6131V16.3867Z"
      fill="url(#paint0_linear_67_36)" />
    <path id="Polygon 1" d="M19.868 10.047L10.3706 15.3412L10.3706 4.75285L19.868 10.047Z"
      fill="url(#paint1_linear_67_36)" />
  </g>
  <defs>
    <linearGradient id="paint0_linear_67_36" x1="-8.18758e-08" y1="22.6797" x2="27" y2="22.6797"
      gradientUnits="userSpaceOnUse">
      <stop stop-color="#D87607" />
      <stop offset="1" stop-color="#923F0E" />
    </linearGradient>
    <linearGradient id="paint1_linear_67_36" x1="13.3502" y1="3.93384" x2="13.3502" y2="16.1603"
      gradientUnits="userSpaceOnUse">
      <stop stop-color="#D87607" />
      <stop offset="1" stop-color="#923F0E" />
    </linearGradient>
  </defs>
</svg>
  
