<svg width="188" height="35" viewBox="0 0 188 35" fill="none" xmlns="http://www.w3.org/2000/svg">
<path d="M0 8.38672C0 5.6253 2.23858 3.38672 5 3.38672H22C24.7614 3.38672 27 5.62529 27 8.38672V26.4056C27 29.167 24.7614 31.4056 22 31.4056H5C2.23858 31.4056 0 29.167 0 26.4056V8.38672Z" fill="#451A03"/>
<path d="M0 19.3867L6.75078 21.8068C11.1143 23.3711 15.8857 23.3711 20.2492 21.8068L27 19.3867V26.6131C27 29.3746 24.7614 31.6131 22 31.6131H5C2.23858 31.6131 0 29.3746 0 26.6131V19.3867Z" fill="url(#paint0_linear_69_191)"/>
<path d="M19.8679 13.047L10.3706 18.3412L10.3706 7.75285L19.8679 13.047Z" fill="url(#paint1_linear_69_191)"/>
<path d="M39.13 29V8.99H44.08L50.95 18.56L48.31 18.65L55.42 8.99H60.25V29H55.39V12.65L56.35 14.21L49.51 23.3L42.73 14.06L43.78 13.34V29H39.13ZM71.1911 29.45C68.6311 29.45 66.7011 28.77 65.4011 27.41C64.1211 26.03 63.4811 24.01 63.4811 21.35C63.4811 18.49 64.1311 16.44 65.4311 15.2C66.7511 13.94 68.6711 13.31 71.1911 13.31C72.8911 13.31 74.3111 13.6 75.4511 14.18C76.6111 14.74 77.4811 15.61 78.0611 16.79C78.6611 17.97 78.9611 19.49 78.9611 21.35C78.9611 24.01 78.2911 26.03 76.9511 27.41C75.6111 28.77 73.6911 29.45 71.1911 29.45ZM71.1911 25.88C71.9311 25.88 72.5411 25.71 73.0211 25.37C73.5211 25.01 73.8911 24.5 74.1311 23.84C74.3911 23.16 74.5211 22.33 74.5211 21.35C74.5211 20.23 74.3911 19.35 74.1311 18.71C73.8911 18.05 73.5211 17.58 73.0211 17.3C72.5211 17 71.9111 16.85 71.1911 16.85C70.4311 16.85 69.8111 17 69.3311 17.3C68.8511 17.6 68.4911 18.08 68.2511 18.74C68.0311 19.38 67.9211 20.25 67.9211 21.35C67.9211 22.87 68.1811 24.01 68.7011 24.77C69.2411 25.51 70.0711 25.88 71.1911 25.88ZM86.1789 29L79.8489 13.82H84.7089L89.2989 25.52L88.2189 25.55L92.2989 13.82H97.0089L90.6789 29H86.1789ZM99.8317 29V14.03H104.302L104.332 29H99.8317ZM99.7417 11.75V8.3H104.362V11.75H99.7417ZM115.196 29.45C113.676 29.45 112.326 29.14 111.146 28.52C109.986 27.88 109.076 26.98 108.416 25.82C107.776 24.64 107.456 23.24 107.456 21.62C107.456 18.98 108.106 16.94 109.406 15.5C110.726 14.04 112.606 13.31 115.046 13.31C116.726 13.31 118.076 13.67 119.096 14.39C120.136 15.11 120.896 16.16 121.376 17.54C121.856 18.92 122.086 20.6 122.066 22.58H110.516L110.036 19.73H118.376L117.716 21.14C117.696 19.52 117.466 18.38 117.026 17.72C116.586 17.06 115.866 16.73 114.866 16.73C114.306 16.73 113.796 16.87 113.336 17.15C112.896 17.43 112.546 17.9 112.286 18.56C112.046 19.2 111.926 20.09 111.926 21.23C111.926 22.67 112.266 23.78 112.946 24.56C113.646 25.34 114.756 25.73 116.276 25.73C116.836 25.73 117.386 25.67 117.926 25.55C118.486 25.41 119.006 25.25 119.486 25.07C119.966 24.89 120.376 24.73 120.716 24.59V28.43C119.996 28.73 119.186 28.97 118.286 29.15C117.406 29.35 116.376 29.45 115.196 29.45ZM129.011 29L123.911 13.82H128.741L132.131 26.09L130.721 26.15L133.931 13.82H137.231L140.381 25.79H139.271L142.511 13.82H147.251L142.211 29H138.161L135.161 19.19L135.911 19.28L133.061 29H129.011ZM150.076 29V14.03H154.546L154.576 29H150.076ZM149.986 11.75V8.3H154.606V11.75H149.986ZM163.07 29.45C161.99 29.45 161.06 29.33 160.28 29.09C159.52 28.87 158.8 28.62 158.12 28.34V24.41C158.54 24.69 159.01 24.98 159.53 25.28C160.05 25.56 160.62 25.79 161.24 25.97C161.88 26.15 162.55 26.24 163.25 26.24C163.97 26.24 164.47 26.12 164.75 25.88C165.05 25.62 165.2 25.31 165.2 24.95C165.2 24.61 165.05 24.34 164.75 24.14C164.45 23.92 164.06 23.74 163.58 23.6C163.1 23.46 162.59 23.33 162.05 23.21C161.57 23.11 161.09 22.96 160.61 22.76C160.13 22.54 159.7 22.25 159.32 21.89C158.94 21.53 158.63 21.09 158.39 20.57C158.17 20.03 158.06 19.38 158.06 18.62C158.06 17.64 158.25 16.83 158.63 16.19C159.01 15.53 159.51 15 160.13 14.6C160.75 14.2 161.42 13.92 162.14 13.76C162.86 13.58 163.56 13.5 164.24 13.52C165.48 13.56 166.46 13.7 167.18 13.94C167.92 14.16 168.59 14.45 169.19 14.81V18.32C168.51 17.94 167.83 17.59 167.15 17.27C166.49 16.93 165.73 16.76 164.87 16.76C164.09 16.76 163.53 16.88 163.19 17.12C162.85 17.36 162.68 17.68 162.68 18.08C162.68 18.46 162.79 18.76 163.01 18.98C163.25 19.2 163.56 19.38 163.94 19.52C164.32 19.64 164.74 19.76 165.2 19.88C165.7 20 166.21 20.15 166.73 20.33C167.27 20.49 167.77 20.73 168.23 21.05C168.71 21.35 169.09 21.78 169.37 22.34C169.67 22.88 169.82 23.6 169.82 24.5C169.8 25.72 169.47 26.7 168.83 27.44C168.19 28.16 167.36 28.68 166.34 29C165.34 29.3 164.25 29.45 163.07 29.45ZM179.913 29.45C178.393 29.45 177.043 29.14 175.863 28.52C174.703 27.88 173.793 26.98 173.133 25.82C172.493 24.64 172.173 23.24 172.173 21.62C172.173 18.98 172.823 16.94 174.123 15.5C175.443 14.04 177.323 13.31 179.763 13.31C181.443 13.31 182.793 13.67 183.813 14.39C184.853 15.11 185.613 16.16 186.093 17.54C186.573 18.92 186.803 20.6 186.783 22.58H175.233L174.753 19.73H183.093L182.433 21.14C182.413 19.52 182.183 18.38 181.743 17.72C181.303 17.06 180.583 16.73 179.583 16.73C179.023 16.73 178.513 16.87 178.053 17.15C177.613 17.43 177.263 17.9 177.003 18.56C176.763 19.2 176.643 20.09 176.643 21.23C176.643 22.67 176.983 23.78 177.663 24.56C178.363 25.34 179.473 25.73 180.993 25.73C181.553 25.73 182.103 25.67 182.643 25.55C183.203 25.41 183.723 25.25 184.203 25.07C184.683 24.89 185.093 24.73 185.433 24.59V28.43C184.713 28.73 183.903 28.97 183.003 29.15C182.123 29.35 181.093 29.45 179.913 29.45Z" fill="#BC560A"/>
<defs>
<linearGradient id="paint0_linear_69_191" x1="-8.18758e-08" y1="25.6797" x2="27" y2="25.6797" gradientUnits="userSpaceOnUse">
<stop stop-color="#D87607"/>
<stop offset="1" stop-color="#923F0E"/>
</linearGradient>
<linearGradient id="paint1_linear_69_191" x1="13.3502" y1="6.93384" x2="13.3502" y2="19.1603" gradientUnits="userSpaceOnUse">
<stop stop-color="#D87607"/>
<stop offset="1" stop-color="#923F0E"/>
</linearGradient>
</defs>
</svg>
