<svg width="16" height="15" viewBox="0 0 16 15" fill="none" xmlns="http://www.w3.org/2000/svg">
<g id="icon/sun-moon">
<path id="Vector" d="M8 10C8.66304 10 9.29893 9.73661 9.76777 9.26777C10.2366 8.79893 10.5 8.16304 10.5 7.5C10.5 6.83696 10.2366 6.20107 9.76777 5.73223C9.29893 5.26339 8.66304 5 8 5C7.33696 5 6.70107 5.26339 6.23223 5.73223C5.76339 6.20107 5.5 6.83696 5.5 7.5C5.5 8.16304 5.76339 8.79893 6.23223 9.26777C6.70107 9.73661 7.33696 10 8 10Z" stroke="#CDCDCD" stroke-linecap="round" stroke-linejoin="round"/>
<path id="Vector_2" d="M7.99994 5C7.66842 5.33152 7.48218 5.78116 7.48218 6.25C7.48218 6.71884 7.66842 7.16848 7.99994 7.5C8.33147 7.83152 8.7811 8.01777 9.24994 8.01777C9.71879 8.01777 10.1684 7.83152 10.4999 7.5" stroke="#CDCDCD" stroke-linecap="round" stroke-linejoin="round"/>
<path id="Vector_3" d="M8 1.25V2.5" stroke="#CDCDCD" stroke-linecap="round" stroke-linejoin="round"/>
<path id="Vector_4" d="M8 12.5V13.75" stroke="#CDCDCD" stroke-linecap="round" stroke-linejoin="round"/>
<path id="Vector_5" d="M3.5813 3.0813L4.46255 3.96255" stroke="#CDCDCD" stroke-linecap="round" stroke-linejoin="round"/>
<path id="Vector_6" d="M11.5375 11.0376L12.4187 11.9188" stroke="#CDCDCD" stroke-linecap="round" stroke-linejoin="round"/>
<path id="Vector_7" d="M1.75 7.5H3" stroke="#CDCDCD" stroke-linecap="round" stroke-linejoin="round"/>
<path id="Vector_8" d="M13 7.5H14.25" stroke="#CDCDCD" stroke-linecap="round" stroke-linejoin="round"/>
<path id="Vector_9" d="M4.46255 11.0376L3.5813 11.9188" stroke="#CDCDCD" stroke-linecap="round" stroke-linejoin="round"/>
<path id="Vector_10" d="M12.4187 3.0813L11.5375 3.96255" stroke="#CDCDCD" stroke-linecap="round" stroke-linejoin="round"/>
</g>
</svg>
