<svg width="18" height="19" viewBox="0 0 18 19" fill="none" xmlns="http://www.w3.org/2000/svg">
<g id="icon/sun-moon">
<path id="Vector" d="M9 12.5C9.79565 12.5 10.5587 12.1839 11.1213 11.6213C11.6839 11.0587 12 10.2956 12 9.5C12 8.70435 11.6839 7.94129 11.1213 7.37868C10.5587 6.81607 9.79565 6.5 9 6.5C8.20435 6.5 7.44129 6.81607 6.87868 7.37868C6.31607 7.94129 6 8.70435 6 9.5C6 10.2956 6.31607 11.0587 6.87868 11.6213C7.44129 12.1839 8.20435 12.5 9 12.5Z" stroke="#0F172A" stroke-linecap="round" stroke-linejoin="round"/>
<path id="Vector_2" d="M8.99998 6.5C8.60216 6.89782 8.37866 7.43739 8.37866 8C8.37866 8.56261 8.60216 9.10218 8.99998 9.5C9.39781 9.89783 9.93737 10.1213 10.5 10.1213C11.0626 10.1213 11.6022 9.89783 12 9.5" stroke="#0F172A" stroke-linecap="round" stroke-linejoin="round"/>
<path id="Vector_3" d="M9 2V3.5" stroke="#0F172A" stroke-linecap="round" stroke-linejoin="round"/>
<path id="Vector_4" d="M9 15.5V17" stroke="#0F172A" stroke-linecap="round" stroke-linejoin="round"/>
<path id="Vector_5" d="M3.69751 4.19751L4.75501 5.25501" stroke="#0F172A" stroke-linecap="round" stroke-linejoin="round"/>
<path id="Vector_6" d="M13.245 13.7451L14.3025 14.8026" stroke="#0F172A" stroke-linecap="round" stroke-linejoin="round"/>
<path id="Vector_7" d="M1.5 9.5H3" stroke="#0F172A" stroke-linecap="round" stroke-linejoin="round"/>
<path id="Vector_8" d="M15 9.5H16.5" stroke="#0F172A" stroke-linecap="round" stroke-linejoin="round"/>
<path id="Vector_9" d="M4.75501 13.7451L3.69751 14.8026" stroke="#0F172A" stroke-linecap="round" stroke-linejoin="round"/>
<path id="Vector_10" d="M14.3025 4.19751L13.245 5.25501" stroke="#0F172A" stroke-linecap="round" stroke-linejoin="round"/>
</g>
</svg>
